<mxfile host="Electron" agent="Mozilla/5.0 (Windows NT 10.0; Win64; x64) AppleWebKit/537.36 (KHTML, like Gecko) draw.io/24.7.8 Chrome/128.0.6613.36 Electron/32.0.1 Safari/537.36" version="24.7.8" pages="3">
  <diagram name="第 1 页" id="0h9fpJIVuNZFzkDJnDro">
    <mxGraphModel dx="1191" dy="694" grid="1" gridSize="10" guides="1" tooltips="1" connect="1" arrows="1" fold="1" page="1" pageScale="1" pageWidth="827" pageHeight="1169" math="0" shadow="0">
      <root>
        <mxCell id="0" />
        <mxCell id="1" parent="0" />
        <mxCell id="nkqiBdED_TCg2tZ42Q-z-1" value="" style="ellipse;whiteSpace=wrap;html=1;aspect=fixed;" vertex="1" parent="1">
          <mxGeometry x="180" y="380" width="170" height="170" as="geometry" />
        </mxCell>
        <mxCell id="nkqiBdED_TCg2tZ42Q-z-7" value="" style="endArrow=classic;html=1;rounded=0;entryX=0.5;entryY=0;entryDx=0;entryDy=0;" edge="1" parent="1" target="nkqiBdED_TCg2tZ42Q-z-1">
          <mxGeometry width="50" height="50" relative="1" as="geometry">
            <mxPoint x="265" y="340" as="sourcePoint" />
            <mxPoint x="490" y="330" as="targetPoint" />
          </mxGeometry>
        </mxCell>
        <mxCell id="nkqiBdED_TCg2tZ42Q-z-10" value="0 和 2^32" style="text;html=1;align=center;verticalAlign=middle;whiteSpace=wrap;rounded=0;" vertex="1" parent="1">
          <mxGeometry x="235" y="300" width="60" height="30" as="geometry" />
        </mxCell>
        <mxCell id="nkqiBdED_TCg2tZ42Q-z-11" value="10" style="text;html=1;align=center;verticalAlign=middle;whiteSpace=wrap;rounded=0;" vertex="1" parent="1">
          <mxGeometry x="280" y="320" width="60" height="30" as="geometry" />
        </mxCell>
        <mxCell id="nkqiBdED_TCg2tZ42Q-z-13" value="" style="ellipse;whiteSpace=wrap;html=1;aspect=fixed;" vertex="1" parent="1">
          <mxGeometry x="260" y="380" width="10" height="10" as="geometry" />
        </mxCell>
        <mxCell id="nkqiBdED_TCg2tZ42Q-z-15" value="" style="endArrow=classic;html=1;rounded=0;entryX=0.5;entryY=0;entryDx=0;entryDy=0;exitX=0.5;exitY=1;exitDx=0;exitDy=0;" edge="1" parent="1" source="nkqiBdED_TCg2tZ42Q-z-11">
          <mxGeometry width="50" height="50" relative="1" as="geometry">
            <mxPoint x="322" y="353" as="sourcePoint" />
            <mxPoint x="287" y="383" as="targetPoint" />
          </mxGeometry>
        </mxCell>
        <mxCell id="nkqiBdED_TCg2tZ42Q-z-16" value="" style="ellipse;whiteSpace=wrap;html=1;aspect=fixed;fillColor=#dae8fc;strokeColor=#6c8ebf;" vertex="1" parent="1">
          <mxGeometry x="282" y="383" width="10" height="10" as="geometry" />
        </mxCell>
        <mxCell id="nkqiBdED_TCg2tZ42Q-z-17" value="200" style="text;html=1;align=center;verticalAlign=middle;whiteSpace=wrap;rounded=0;" vertex="1" parent="1">
          <mxGeometry x="358" y="365" width="60" height="30" as="geometry" />
        </mxCell>
        <mxCell id="nkqiBdED_TCg2tZ42Q-z-18" value="" style="endArrow=classic;html=1;rounded=0;entryX=0.5;entryY=0;entryDx=0;entryDy=0;exitX=0.5;exitY=1;exitDx=0;exitDy=0;" edge="1" parent="1" source="nkqiBdED_TCg2tZ42Q-z-17">
          <mxGeometry width="50" height="50" relative="1" as="geometry">
            <mxPoint x="370" y="389.5" as="sourcePoint" />
            <mxPoint x="335" y="419.5" as="targetPoint" />
          </mxGeometry>
        </mxCell>
        <mxCell id="nkqiBdED_TCg2tZ42Q-z-19" value="" style="ellipse;whiteSpace=wrap;html=1;aspect=fixed;fillColor=#fff2cc;strokeColor=#d6b656;" vertex="1" parent="1">
          <mxGeometry x="330" y="419.5" width="10" height="10" as="geometry" />
        </mxCell>
        <mxCell id="nkqiBdED_TCg2tZ42Q-z-20" value="300" style="text;html=1;align=center;verticalAlign=middle;whiteSpace=wrap;rounded=0;" vertex="1" parent="1">
          <mxGeometry x="390" y="444.5" width="60" height="30" as="geometry" />
        </mxCell>
        <mxCell id="nkqiBdED_TCg2tZ42Q-z-21" value="" style="endArrow=classic;html=1;rounded=0;entryX=1;entryY=0.5;entryDx=0;entryDy=0;exitX=0;exitY=0.5;exitDx=0;exitDy=0;" edge="1" parent="1" source="nkqiBdED_TCg2tZ42Q-z-20" target="nkqiBdED_TCg2tZ42Q-z-22">
          <mxGeometry width="50" height="50" relative="1" as="geometry">
            <mxPoint x="380" y="424.5" as="sourcePoint" />
            <mxPoint x="345" y="454.5" as="targetPoint" />
          </mxGeometry>
        </mxCell>
        <mxCell id="nkqiBdED_TCg2tZ42Q-z-22" value="" style="ellipse;whiteSpace=wrap;html=1;aspect=fixed;fillColor=#ffe6cc;strokeColor=#d79b00;" vertex="1" parent="1">
          <mxGeometry x="340" y="454.5" width="10" height="10" as="geometry" />
        </mxCell>
      </root>
    </mxGraphModel>
  </diagram>
  <diagram id="Wbd2jXvLNEStyoDUqWL7" name="第 2 页">
    <mxGraphModel dx="1548" dy="902" grid="1" gridSize="10" guides="1" tooltips="1" connect="1" arrows="1" fold="1" page="1" pageScale="1" pageWidth="827" pageHeight="1169" math="0" shadow="0">
      <root>
        <mxCell id="0" />
        <mxCell id="1" parent="0" />
        <mxCell id="az-y8TGZQjpOstiVN5an-1" value="c_cache" style="rounded=1;whiteSpace=wrap;html=1;" vertex="1" parent="1">
          <mxGeometry x="350" y="430" width="80" height="40" as="geometry" />
        </mxCell>
        <mxCell id="az-y8TGZQjpOstiVN5an-2" value="c_cache" style="rounded=1;whiteSpace=wrap;html=1;" vertex="1" parent="1">
          <mxGeometry x="350" y="490" width="80" height="40" as="geometry" />
        </mxCell>
        <mxCell id="az-y8TGZQjpOstiVN5an-3" value="c_cache" style="rounded=1;whiteSpace=wrap;html=1;" vertex="1" parent="1">
          <mxGeometry x="350" y="550" width="80" height="40" as="geometry" />
        </mxCell>
      </root>
    </mxGraphModel>
  </diagram>
  <diagram id="ZwfZF5zEZdMDHMHn7_93" name="第 3 页">
    <mxGraphModel dx="1548" dy="902" grid="1" gridSize="10" guides="1" tooltips="1" connect="1" arrows="1" fold="1" page="1" pageScale="1" pageWidth="827" pageHeight="1169" math="0" shadow="0">
      <root>
        <mxCell id="0" />
        <mxCell id="1" parent="0" />
        <mxCell id="o6sVOkM76FY48gzLWDcP-1" value="richDBImpl" style="swimlane;fontStyle=0;childLayout=stackLayout;horizontal=1;startSize=26;fillColor=none;horizontalStack=0;resizeParent=1;resizeParentMax=0;resizeLast=0;collapsible=1;marginBottom=0;whiteSpace=wrap;html=1;" vertex="1" parent="1">
          <mxGeometry x="340" y="410" width="140" height="52" as="geometry" />
        </mxCell>
        <mxCell id="o6sVOkM76FY48gzLWDcP-2" value="+ field: type" style="text;strokeColor=none;fillColor=none;align=left;verticalAlign=top;spacingLeft=4;spacingRight=4;overflow=hidden;rotatable=0;points=[[0,0.5],[1,0.5]];portConstraint=eastwest;whiteSpace=wrap;html=1;" vertex="1" parent="o6sVOkM76FY48gzLWDcP-1">
          <mxGeometry y="26" width="140" height="26" as="geometry" />
        </mxCell>
      </root>
    </mxGraphModel>
  </diagram>
</mxfile>
